<svg id="visual" viewBox="0 0 900 600" width="900" height="600" xmlns="http://www.w3.org/2000/svg" xmlns:xlink="http://www.w3.org/1999/xlink" version="1.1"><g><g transform="translate(170 131)"><path d="M0 -45.8L39.6 -22.9L39.6 22.9L0 45.8L-39.6 22.9L-39.6 -22.9Z" fill="none" stroke="#ffc533" stroke-width="3"></path></g><g transform="translate(721 357)"><path d="M0 -44L38.1 -22L38.1 22L0 44L-38.1 22L-38.1 -22Z" fill="none" stroke="#ffc533" stroke-width="3"></path></g><g transform="translate(621 434)"><path d="M0 -30L26 -15L26 15L0 30L-26 15L-26 -15Z" fill="none" stroke="#ffc533" stroke-width="3"></path></g><g transform="translate(698 521)"><path d="M0 -35L30.3 -17.5L30.3 17.5L0 35L-30.3 17.5L-30.3 -17.5Z" stroke="#ffc533" fill="none" stroke-width="3"></path></g><g transform="translate(52 261)"><path d="M0 -39L33.8 -19.5L33.8 19.5L0 39L-33.8 19.5L-33.8 -19.5Z" stroke="#ffc533" fill="none" stroke-width="3"></path></g><g transform="translate(269 260)"><path d="M0 -29L25.1 -14.5L25.1 14.5L0 29L-25.1 14.5L-25.1 -14.5Z" stroke="#ffc533" fill="none" stroke-width="3"></path></g><g transform="translate(812 408)"><path d="M0 -43L37.2 -21.5L37.2 21.5L0 43L-37.2 21.5L-37.2 -21.5Z" stroke="#ffc533" fill="none" stroke-width="3"></path></g></g></svg>